<svg version="1.1" id="Layer_1" xmlns="http://www.w3.org/2000/svg" xmlns:xlink="http://www.w3.org/1999/xlink" x="0px" y="0px"
	 width="100%" viewBox="0 0 692 640" enable-background="new 0 0 692 640" xml:space="preserve">
<path fill="#FFFFFF" opacity="1.000000" stroke="none" 
	d="
M693.000000,318.000000 
	C693.000000,425.606293 693.000000,533.212585 693.000000,641.000000 
	C543.977417,641.000000 394.954742,641.000000 245.656784,640.665649 
	C246.918488,640.166016 248.455460,640.000671 250.430542,639.899902 
	C254.243439,639.588745 257.618225,639.212952 261.437897,638.900757 
	C265.251923,638.588440 268.621094,638.212585 272.425232,637.899292 
	C274.905518,637.921082 276.950775,637.880188 279.394043,637.900024 
	C281.860168,637.586731 283.928253,637.212708 286.421997,636.899902 
	C288.564270,636.920776 290.280975,636.880371 292.395203,636.898315 
	C294.861145,636.585022 296.929535,636.213318 299.444641,635.900391 
	C302.593658,635.920044 305.295868,635.880920 308.390625,635.739624 
	C311.854614,635.372742 314.926117,635.107971 318.422363,634.900635 
	C323.230835,634.586304 327.614471,634.214661 332.418335,633.895569 
	C337.571655,633.333252 342.304779,632.718323 347.495239,632.064270 
	C352.301483,631.632080 356.650421,631.239075 361.453094,630.903687 
	C365.616974,630.675903 369.327148,630.390442 373.483276,630.065063 
	C376.619873,629.964172 379.310486,629.903198 382.399017,629.899475 
	C384.864929,629.585754 386.932953,629.214844 389.426819,628.902100 
	C391.569275,628.920837 393.285889,628.881409 395.400055,628.897766 
	C397.866333,628.583008 399.935028,628.212463 402.445007,627.898804 
	C405.258545,627.918701 407.630859,627.881714 410.381287,627.749634 
	C412.840454,627.383301 414.921448,627.112122 417.428162,626.900146 
	C419.570587,626.919250 421.287262,626.879211 423.388855,626.740723 
	C426.183929,626.374451 428.594147,626.106750 431.411346,625.897949 
	C433.880493,625.583252 435.942596,625.209778 438.430237,624.896912 
	C440.572266,624.917114 442.288788,624.876648 444.411499,624.895752 
	C446.879547,624.581238 448.941406,624.207153 451.444153,623.894287 
	C454.259705,623.914124 456.634369,623.872742 459.420593,623.891663 
	C462.556763,623.581787 465.281372,623.211548 468.403442,622.902588 
	C469.869415,622.920593 470.937866,622.877258 472.391205,622.894653 
	C474.519562,622.582153 476.263062,622.209045 478.431915,621.899170 
	C480.573761,621.919983 482.290253,621.877563 484.370422,621.898376 
	C485.835754,621.679565 486.937439,621.397583 488.408936,621.067017 
	C489.520386,620.956482 490.262024,620.894531 491.456787,620.899414 
	C498.507782,620.641602 505.192261,620.864197 511.678741,619.836609 
	C518.037231,618.829285 524.796021,617.643921 530.317749,614.606995 
	C542.823853,607.728638 554.422852,599.411072 563.554688,588.059692 
	C568.444702,581.981201 568.932373,578.607483 564.422546,571.953857 
	C547.544800,547.053040 530.688477,522.137573 513.761169,497.270508 
	C506.604401,486.756805 499.291351,476.349518 492.019409,465.549591 
	C490.672516,463.432861 489.355591,461.660400 488.013733,459.551025 
	C487.026917,457.791321 486.064972,456.368469 484.955566,454.630737 
	C482.551544,451.172852 480.295044,448.029816 478.011292,444.536957 
	C476.337524,441.754944 474.690979,439.322754 472.900452,436.588165 
	C471.239716,434.646515 469.723022,433.007263 468.397095,431.049622 
	C465.739258,426.452850 462.890594,422.174500 459.898560,417.586548 
	C457.450043,413.870911 455.144928,410.464905 452.793243,406.719330 
	C450.179352,402.884399 447.612061,399.389069 444.899780,395.588013 
	C443.063965,393.042145 441.373108,390.801941 439.666138,388.195770 
	C436.824921,384.019989 433.999817,380.210175 431.312073,376.066589 
	C428.997955,372.136353 426.546509,368.539886 424.040863,364.595032 
	C422.023041,361.479736 420.059387,358.712860 417.942200,355.636597 
	C415.557434,352.200256 413.326172,349.073303 411.041260,345.595154 
	C408.341919,341.463135 405.696136,337.682312 403.010071,333.553467 
	C400.661285,329.770355 398.352783,326.335297 395.896240,322.595215 
	C393.863647,319.509521 391.979034,316.728882 389.935486,313.645294 
	C387.583527,310.702271 385.390533,308.062164 383.289124,305.078461 
	C380.284424,300.139313 377.188141,295.543762 374.036743,290.593628 
	C371.604309,284.303986 367.505676,281.522980 360.574493,283.098602 
	C355.765900,283.414612 351.382080,283.785950 346.562500,284.101257 
	C341.417236,284.415802 336.707703,284.786377 331.557922,285.099426 
	C326.744324,285.413452 322.370972,285.785065 317.558960,286.099091 
	C314.079529,286.413910 311.038727,286.786346 307.550781,287.100037 
	C304.401764,287.080353 301.699890,287.119354 298.591034,287.100281 
	C296.121887,287.414917 294.059723,287.787598 291.571899,288.100891 
	C289.429596,288.081421 287.712982,288.121338 285.562012,288.102661 
	C283.083740,288.082947 281.039825,288.121765 278.595825,288.127930 
	C275.795288,288.450745 273.394928,288.806274 270.552246,289.103210 
	C267.064301,289.323151 264.018677,289.601685 260.518677,289.927612 
	C256.706970,290.038177 253.349670,290.101379 249.565842,290.104919 
	C245.423904,290.418060 241.708481,290.790924 237.555298,291.103088 
	C233.742966,291.416534 230.368423,291.790680 226.547318,292.102905 
	C223.399078,292.082306 220.697403,292.123566 217.597488,292.102356 
	C215.131470,292.414917 213.063660,292.789978 210.561661,293.101074 
	C208.082520,293.080200 206.037567,293.123291 203.563812,293.103271 
	C199.753799,293.415863 196.372589,293.791565 192.543671,294.104187 
	C188.717682,294.321716 185.339447,294.602325 181.521423,294.933594 
	C178.718582,295.044739 176.355545,295.105255 173.546616,295.100037 
	C169.668137,295.355804 166.241852,295.800781 162.801804,295.977234 
	C148.770386,296.696991 134.733612,297.311920 120.701202,298.013245 
	C114.764961,298.309937 108.739677,298.190063 102.925797,299.222290 
	C95.761314,300.494324 88.941406,300.308960 82.062408,297.987213 
	C73.245941,295.011566 64.011848,279.320923 69.863686,269.075317 
	C73.829033,262.132599 76.762352,254.605713 80.264076,247.391953 
	C92.566078,222.049057 104.895988,196.719635 117.251122,171.402573 
	C126.161491,153.144241 135.112701,134.905777 144.080002,116.675339 
	C146.976044,110.787727 150.035172,104.980278 152.925430,99.089897 
	C159.395981,85.902840 163.852707,71.549088 175.452423,61.066288 
	C178.571167,60.622784 181.281067,60.225624 184.401337,59.898617 
	C187.205002,59.591034 189.598297,59.213299 192.447296,58.905106 
	C197.266052,58.592865 201.629105,58.211086 206.417053,57.897675 
	C208.559891,57.921230 210.277817,57.876427 212.416016,57.897682 
	C215.555923,57.585136 218.275558,57.206535 221.445129,56.894516 
	C224.926605,56.918056 227.958145,56.875011 231.404816,56.875275 
	C235.545471,56.556053 239.270981,56.193531 243.424469,55.895058 
	C247.897278,55.584118 251.942093,55.209133 256.421906,54.900169 
	C261.236176,54.590721 265.615479,54.215248 270.431885,53.902199 
	C274.577484,53.589436 278.286011,53.214249 282.443054,52.900276 
	C287.258820,52.587410 291.626007,52.213337 296.436462,51.900944 
	C299.930634,51.679214 302.981567,51.395802 306.483154,51.072212 
	C309.954926,50.969955 312.976044,50.907883 316.413727,50.904305 
	C319.886688,50.589935 322.943085,50.217068 326.446533,49.900932 
	C330.928253,49.586361 334.962891,49.215057 339.450317,48.900902 
	C344.601990,48.586742 349.300903,48.215435 354.453308,47.900513 
	C359.938141,47.585556 364.969452,47.214207 370.446228,46.900826 
	C374.595245,46.586613 378.298828,46.214432 382.453125,45.898720 
	C386.602570,45.583843 390.301300,45.212502 394.460144,44.898605 
	C398.948914,44.919369 402.977570,44.882683 407.399353,44.738960 
	C411.197662,44.367085 414.602814,44.102249 418.429535,43.894241 
	C422.568970,43.579601 426.286896,43.208134 430.429657,42.896263 
	C433.572357,42.582535 436.290161,42.209221 439.458435,41.895157 
	C442.942352,41.914162 445.975800,41.873917 449.421143,41.866661 
	C453.224365,41.544502 456.615662,41.189354 460.413910,40.894798 
	C462.882721,40.582455 464.944580,40.209518 467.440918,39.898720 
	C469.919617,39.919247 471.963806,39.877632 474.433594,39.898056 
	C476.575806,39.917774 478.292450,39.875462 480.331604,39.998161 
	C482.421783,40.819534 484.189423,41.475891 486.091095,42.421284 
	C487.131042,43.175838 488.036957,43.641354 489.088562,44.408886 
	C490.578827,46.358692 492.043243,47.923809 493.247345,49.668587 
	C498.448273,57.204937 503.579254,64.789635 508.724274,72.364479 
	C528.832642,101.969429 548.898254,131.603500 569.055359,161.175201 
	C583.236633,181.979950 597.596680,202.662842 611.775208,223.469376 
	C631.376099,252.233002 650.868347,281.070587 670.436035,309.856903 
	C675.935364,317.947021 681.536133,325.968262 687.615417,334.782318 
	C688.685791,332.271484 689.526184,330.717346 690.018555,329.059814 
	C691.105469,325.400848 692.016968,321.689819 693.000000,318.000000 
M429.993591,200.263702 
	C429.364441,199.489914 428.735321,198.716125 428.001770,197.239548 
	C426.031250,194.475922 424.060730,191.712296 421.994446,188.270233 
	C421.013367,186.812683 420.032288,185.355133 418.730164,183.262787 
	C415.938873,178.907944 412.203125,182.949448 408.159180,182.038635 
	C406.442108,182.080048 404.725006,182.121475 402.232758,182.037506 
	C400.490448,182.412216 398.748169,182.786926 396.177826,183.037354 
	C394.785980,183.077972 393.394165,183.118576 391.174225,183.042114 
	C389.105377,183.323593 387.036499,183.605072 384.074860,183.966034 
	C381.384338,184.029724 378.693848,184.093414 375.144928,184.040970 
	C371.764099,184.412781 368.383301,184.784592 364.118713,185.042389 
	C360.746124,185.414185 357.373566,185.785995 353.086426,186.043427 
	C349.045227,186.327179 345.004059,186.610931 340.062744,186.974548 
	C337.041382,187.034866 334.019989,187.095200 330.165588,187.041534 
	C327.108398,187.413986 324.051239,187.786438 320.117432,188.047668 
	C317.077484,188.417969 314.037506,188.788254 310.114807,189.041122 
	C307.742615,189.079575 305.370422,189.118011 302.176697,189.039932 
	C299.783051,189.411850 297.389374,189.783768 294.125824,190.039413 
	C292.080566,190.081558 290.035278,190.123688 287.147736,190.042755 
	C284.096466,190.417374 281.045166,190.792007 277.124420,191.045532 
	C274.407379,191.324478 271.690369,191.603424 268.072144,191.976669 
	C265.045624,192.037704 262.019073,192.098755 258.144287,192.040024 
	C254.759598,192.413208 251.374908,192.786392 247.131683,193.041306 
	C244.417404,193.417236 241.703140,193.793152 238.107315,194.045059 
	C235.735001,194.089066 233.362686,194.133072 230.177322,194.049500 
	C228.115921,194.426498 226.054520,194.803497 223.112869,195.047791 
	C220.739227,195.088837 218.365601,195.129883 215.128098,195.037308 
	C213.035736,195.355667 210.953476,195.835342 208.849426,195.966812 
	C192.071915,197.015213 175.296219,198.130798 158.504562,198.880997 
	C155.375488,199.020782 154.195389,200.401047 153.031586,202.758530 
	C145.708862,217.591888 138.316727,232.390961 130.957245,247.206223 
	C130.256683,248.616547 129.623047,250.060120 128.721298,251.997543 
	C131.011673,251.997543 132.667160,252.120377 134.299423,251.977707 
	C145.256943,251.019897 156.198334,249.853638 167.166351,249.045486 
	C183.432251,247.846985 199.715897,246.889282 216.820343,245.968216 
	C219.210281,245.585632 221.600220,245.203064 224.856873,244.962402 
	C226.901352,244.915909 228.945847,244.869415 231.817383,244.963181 
	C234.207855,244.586029 236.598343,244.208862 239.880508,243.970367 
	C242.583740,243.927063 245.286972,243.883774 248.821243,243.969223 
	C252.211685,243.592880 255.602112,243.216537 259.844818,242.969406 
	C262.893951,242.591202 265.943054,242.212997 269.878265,241.963531 
	C272.933502,241.674728 275.988770,241.385925 279.934174,241.020645 
	C282.619476,240.958466 285.304779,240.896301 288.793671,240.961212 
	C290.860992,240.588806 292.928284,240.216400 295.877686,239.963409 
	C298.251190,239.923477 300.624725,239.883530 303.818848,239.958923 
	C306.211761,239.586517 308.604706,239.214111 311.899628,238.958542 
	C314.931305,238.920883 317.962982,238.883209 321.780029,238.643326 
	C324.852905,238.377060 327.925751,238.110779 331.847046,237.957657 
	C335.231689,237.586288 338.616333,237.214920 342.883575,236.955780 
	C346.589325,236.584763 350.295074,236.213745 354.898682,235.958344 
	C358.278137,235.674225 361.657623,235.390106 365.932098,235.024460 
	C369.300293,234.719162 372.668488,234.413864 376.907227,234.024231 
	C379.240723,234.034409 381.574249,234.044601 384.326630,234.631821 
	C386.377960,235.183884 388.429291,235.735962 390.942841,236.775299 
	C392.595947,238.200272 394.249054,239.625244 396.219177,241.656952 
	C398.050171,243.975143 399.881134,246.293335 401.493561,249.296829 
	C403.645203,252.227631 405.796844,255.158417 408.031921,258.791229 
	C411.004730,263.229279 413.977570,267.667328 417.219940,272.681213 
	C418.116119,273.802307 419.012329,274.923401 420.017365,276.746704 
	C421.993103,279.533112 423.968872,282.319519 426.009613,285.733582 
	C426.638428,286.505981 427.267212,287.278381 428.002228,288.740234 
	C429.318756,290.532593 430.635315,292.324921 432.014557,294.784668 
	C433.065918,296.181610 434.117310,297.578522 435.240082,299.631470 
	C436.478973,301.124298 437.717865,302.617157 439.017487,304.816986 
	C446.723267,316.359283 454.369720,327.941772 462.146729,339.435883 
	C480.660889,366.798889 499.289154,394.084717 517.773376,421.467865 
	C537.254456,450.327667 556.619507,479.265808 576.040283,508.166351 
	C581.201477,515.846802 586.381104,523.514954 592.214417,532.171387 
	C594.040039,528.333191 595.400269,525.475647 596.758606,522.617371 
	C603.367432,508.710571 610.058167,494.841187 616.460632,480.839996 
	C617.122498,479.392731 616.659790,476.764893 615.718567,475.350494 
	C600.774414,452.893768 585.702515,430.521606 570.586975,408.179413 
	C553.449768,382.849121 536.184204,357.605621 519.076660,332.255371 
	C500.240265,304.343201 481.576050,276.314819 462.721313,248.415100 
	C455.321472,237.465347 447.608521,226.727173 439.988556,215.262589 
	C439.360229,214.489548 438.731903,213.716507 438.009033,212.256119 
	C436.709320,210.484283 435.409576,208.712433 434.008972,206.251602 
	C432.689758,204.465225 431.370544,202.678848 429.993591,200.263702 
M398.152100,91.039261 
	C396.435120,91.079048 394.718109,91.118835 392.178040,91.044739 
	C389.453094,91.415855 386.728180,91.786972 383.113983,92.043335 
	C379.743591,92.415825 376.373230,92.788315 372.087585,93.044319 
	C368.392059,93.081451 364.696533,93.118591 360.177429,93.102524 
	C356.785461,93.453934 353.393463,93.805344 349.139221,94.041504 
	C346.092834,94.413078 343.046478,94.784645 339.130341,95.039879 
	C337.086517,95.078087 335.042725,95.116295 332.195709,95.043701 
	C330.129578,95.414520 328.063477,95.785347 325.087616,96.043083 
	C321.723389,96.081642 318.359192,96.120201 314.171875,96.106728 
	C310.779419,96.458145 307.386993,96.809570 303.136475,97.044289 
	C299.754364,97.417763 296.372284,97.791237 292.091156,98.049179 
	C288.058929,98.420639 284.026733,98.792099 279.085541,99.042778 
	C275.053741,99.416672 271.021973,99.790565 266.071198,100.044838 
	C262.043732,100.085587 258.016296,100.126343 253.198166,100.374031 
	C249.797394,100.637405 246.396622,100.900772 242.144012,101.038010 
	C239.092102,101.412628 236.040207,101.787254 232.092834,102.040962 
	C228.715637,102.322090 225.338440,102.603226 221.081329,102.984497 
	C218.718460,103.046074 216.355576,103.107651 213.165680,103.040909 
	C211.100525,103.321205 209.035370,103.601494 206.163956,103.984741 
	C203.484650,103.721016 201.675308,104.380104 200.268341,107.165398 
	C193.555801,120.453835 186.534515,133.586075 179.670593,146.798584 
	C178.908600,148.265350 178.449326,149.889404 177.655594,151.942459 
	C188.001846,151.197556 197.496964,150.513931 207.819214,149.969818 
	C209.891678,149.685776 211.964157,149.401733 214.927887,149.027283 
	C217.615601,148.961746 220.303299,148.896210 223.841995,148.969711 
	C226.890762,148.592514 229.939514,148.215332 233.889297,147.976395 
	C236.924820,147.929596 239.960327,147.882782 243.821243,147.921890 
	C247.210770,147.558838 250.600296,147.195786 254.856216,146.967255 
	C258.900909,146.590118 262.945618,146.212982 267.875488,145.966919 
	C271.915161,145.590103 275.954803,145.213272 280.899628,144.962387 
	C284.929810,144.586716 288.960022,144.211060 293.900543,143.963913 
	C297.265228,143.922348 300.629944,143.880768 304.823517,143.901398 
	C308.547058,143.547684 312.270599,143.193985 316.837433,142.962051 
	C319.890656,142.589478 322.943909,142.216919 326.867004,141.963013 
	C328.910980,141.923813 330.954987,141.884613 333.794495,141.960480 
	C335.863007,141.588196 337.931519,141.215927 340.901978,140.957764 
	C343.935181,140.919617 346.968353,140.881470 350.824066,140.893005 
	C354.216400,140.543320 357.608704,140.193634 361.865112,139.956009 
	C365.576691,139.584793 369.288269,139.213562 373.890289,138.957703 
	C377.261292,138.585693 380.632294,138.213684 384.897461,137.957779 
	C387.598694,137.918961 390.299896,137.880157 393.786163,137.957489 
	C395.524323,137.584396 397.262482,137.211304 399.869843,136.954178 
	C401.914398,136.916763 403.958954,136.879333 406.853790,136.955460 
	C409.570892,136.584427 412.287964,136.213394 415.899231,135.958344 
	C418.600830,135.919495 421.302429,135.880646 424.807770,135.959503 
	C426.874298,135.585815 428.940826,135.212128 431.774353,134.959656 
	C434.185974,135.585800 436.597595,136.211945 439.621094,137.151184 
	C442.064117,139.135712 444.507141,141.120239 447.251495,143.721710 
	C449.149048,146.515930 451.046600,149.310165 453.022491,152.802460 
	C454.999359,155.572800 456.976227,158.343140 459.023224,161.812469 
	C460.553467,163.765930 462.083710,165.719391 463.332947,168.332047 
	C464.942200,170.539612 466.551453,172.747192 468.220093,175.615433 
	C469.460571,177.111679 470.701050,178.607925 472.017456,180.810379 
	C477.093262,188.407166 482.113464,196.041809 487.255707,203.593353 
	C500.419556,222.924805 513.708801,242.171127 526.817871,261.539520 
	C547.979919,292.806091 569.011169,324.161102 590.148193,355.444641 
	C605.710693,378.477722 621.350891,401.458313 636.966370,424.455536 
	C638.275391,426.383392 639.660095,428.259857 641.441040,430.767639 
	C642.584106,428.562866 643.372986,427.155762 644.058777,425.700104 
	C648.592773,416.076324 652.524841,406.110809 657.785156,396.903503 
	C663.145508,387.521332 663.455078,380.586853 656.400818,370.880463 
	C634.402649,340.611786 614.042969,309.152618 593.035522,278.163513 
	C579.090637,257.592834 565.077881,237.068130 551.179443,216.466187 
	C533.721375,190.587769 516.403931,164.614395 498.915558,138.756592 
	C490.779938,126.727470 482.384369,114.874153 474.010712,102.249496 
	C472.687866,100.460297 471.365021,98.671097 469.986389,96.188202 
	C468.337463,94.087593 466.688507,91.986992 464.969238,89.128433 
	C462.982788,88.474586 460.996338,87.820747 458.183289,87.031891 
	C456.790985,87.075073 455.398651,87.118256 453.221710,87.032646 
	C451.484039,87.409531 449.746399,87.786407 447.115784,88.034027 
	C444.413513,88.077698 441.711273,88.121368 438.187714,88.035843 
	C435.794373,88.410950 433.401001,88.786064 430.138702,89.034424 
	C428.093811,89.075676 426.048920,89.116920 423.171600,89.037994 
	C420.449432,89.411194 417.727264,89.784393 414.111267,90.036705 
	C411.408691,90.077065 408.706146,90.117424 405.217316,90.088493 
	C403.146118,90.445251 401.074921,90.802017 398.152100,91.039261 
z"/>
<path fill="#E32F8A" opacity="1.000000" stroke="none" 
	d="
M175.043594,61.112633 
	C163.852707,71.549088 159.395981,85.902840 152.925430,99.089897 
	C150.035172,104.980278 146.976044,110.787727 144.080002,116.675339 
	C135.112701,134.905777 126.161491,153.144241 117.251122,171.402573 
	C104.895988,196.719635 92.566078,222.049057 80.264076,247.391953 
	C76.762352,254.605713 73.829033,262.132599 69.863686,269.075317 
	C64.011848,279.320923 73.245941,295.011566 82.062408,297.987213 
	C88.941406,300.308960 95.761314,300.494324 102.925797,299.222290 
	C108.739677,298.190063 114.764961,298.309937 120.701202,298.013245 
	C134.733612,297.311920 148.770386,296.696991 162.801804,295.977234 
	C166.241852,295.800781 169.668137,295.355804 173.549103,295.557373 
	C173.998306,399.694458 174.005478,503.308441 173.953964,606.922424 
	C173.952957,608.966614 173.263962,611.010498 172.594116,612.914062 
	C170.114166,610.310913 167.656723,608.040894 165.802673,605.354492 
	C152.534760,586.130127 139.318359,566.869263 126.221931,547.527710 
	C105.721596,517.251404 85.373192,486.872284 64.874947,456.594574 
	C51.046471,436.168732 36.976307,415.906097 23.199490,395.445740 
	C15.908493,384.617645 8.636683,373.705261 5.396476,360.781128 
	C3.833093,354.545288 2.459514,348.261871 0.999998,342.000000 
	C1.000000,339.299988 1.000000,336.599976 1.370839,333.250671 
	C2.838818,327.015320 2.984034,321.014679 5.203985,315.917603 
	C13.231647,297.485870 21.777311,279.272003 30.461266,261.135742 
	C42.909210,235.138443 55.620037,209.266724 68.276367,183.369614 
	C77.125443,165.262802 86.066353,147.200851 94.976273,129.123810 
	C97.948181,123.094200 100.912231,117.060211 103.947212,111.062302 
	C114.054703,91.087341 123.856018,70.947456 134.424622,51.218960 
	C143.026398,35.161945 157.868958,27.317633 174.996170,23.627926 
	C175.012955,36.427666 175.028275,48.770149 175.043594,61.112633 
z"/>
<path fill="#FFFFFF" opacity="1.000000" stroke="none" 
	d="
M174.994705,23.170670 
	C157.868958,27.317633 143.026398,35.161945 134.424622,51.218960 
	C123.856018,70.947456 114.054703,91.087341 103.947212,111.062302 
	C100.912231,117.060211 97.948181,123.094200 94.976273,129.123810 
	C86.066353,147.200851 77.125443,165.262802 68.276367,183.369614 
	C55.620037,209.266724 42.909210,235.138443 30.461266,261.135742 
	C21.777311,279.272003 13.231647,297.485870 5.203985,315.917603 
	C2.984034,321.014679 2.838818,327.015320 1.370839,332.800720 
	C1.000000,222.395172 1.000000,111.790344 1.000000,1.000000 
	C151.020844,1.000000 301.041748,1.000000 451.381409,1.311621 
	C450.803162,1.804186 449.906158,1.985131 448.570709,2.101017 
	C445.090881,2.411681 442.049500,2.787405 438.561218,3.099509 
	C435.411133,3.078367 432.707977,3.120845 429.578003,3.101997 
	C425.436798,3.414639 421.722382,3.788608 417.569611,4.100625 
	C413.755798,4.411530 410.380341,4.784387 406.550018,5.097784 
	C402.064423,5.410779 398.033691,5.783232 393.545105,6.096147 
	C389.392365,6.076804 385.697479,6.116999 381.588257,6.129849 
	C377.449585,6.454051 373.725189,6.805599 369.569519,7.100441 
	C364.092102,7.414456 359.045959,7.785178 353.574188,8.098473 
	C348.431549,8.412779 343.714569,8.784511 338.574219,9.099250 
	C334.100403,9.413435 330.049927,9.784614 325.573303,10.097641 
	C322.097107,10.411064 319.047119,10.782638 315.552277,11.098505 
	C311.737946,11.413949 308.368469,11.785098 304.551788,12.097870 
	C301.400787,12.079910 298.697021,12.120331 295.563721,12.104008 
	C290.754303,12.418487 286.374420,12.789711 281.567810,13.102166 
	C277.425690,13.415676 273.710205,13.787954 269.550598,14.101594 
	C264.733307,14.417253 260.360138,14.791550 255.544724,15.107870 
	C251.067154,15.422924 247.031845,15.795958 242.551636,16.106241 
	C238.401077,16.418373 234.695404,16.793251 230.548141,17.107887 
	C227.058975,17.329931 224.011398,17.612217 220.517715,17.939354 
	C217.379654,18.045601 214.687683,18.106998 211.607727,18.104832 
	C209.477264,18.417822 207.734787,18.794373 205.538681,19.106964 
	C200.720596,19.416826 196.356110,19.790646 191.566864,20.102081 
	C188.751923,20.320927 186.361755,20.602160 183.565720,20.934910 
	C180.438141,21.714510 177.716415,22.442591 174.994705,23.170670 
z"/>
<path fill="#FFFFFF" opacity="1.000000" stroke="none" 
	d="
M0.999998,342.468658 
	C2.459514,348.261871 3.833093,354.545288 5.396476,360.781128 
	C8.636683,373.705261 15.908493,384.617645 23.199490,395.445740 
	C36.976307,415.906097 51.046471,436.168732 64.874947,456.594574 
	C85.373192,486.872284 105.721596,517.251404 126.221931,547.527710 
	C139.318359,566.869263 152.534760,586.130127 165.802673,605.354492 
	C167.656723,608.040894 170.114166,610.310913 172.642700,613.260864 
	C175.982544,616.537415 178.971970,619.326660 182.102203,622.424072 
	C185.479111,624.857300 188.715195,626.982483 192.128265,629.409790 
	C195.837494,631.160767 199.369736,632.609558 203.092957,634.368896 
	C205.854538,635.397827 208.425156,636.116272 211.384460,636.918457 
	C213.835663,637.373230 215.898148,637.744263 218.194733,638.432312 
	C221.283829,639.111206 224.138840,639.473145 227.362122,639.900085 
	C228.820267,640.310059 229.910126,640.655029 231.000000,641.000000 
	C154.396790,641.000000 77.793564,641.000000 1.000000,641.000000 
	C1.000000,541.645874 1.000000,442.291595 0.999998,342.468658 
z"/>
<path fill="#FFFFFF" opacity="1.000000" stroke="none" 
	d="
M474.000000,1.000000 
	C546.937073,1.000000 619.874207,1.000000 693.000000,1.000000 
	C693.000000,97.020813 693.000000,193.041748 692.633301,289.328796 
	C691.674988,285.719238 691.417603,281.756104 690.431152,277.983704 
	C687.055664,265.075806 679.367493,254.464325 671.970825,243.650192 
	C651.936462,214.359116 632.073425,184.950424 612.223450,155.533707 
	C589.452820,121.788673 566.878845,87.910400 543.990479,54.245663 
	C535.596680,41.899788 529.505127,27.500002 515.872314,19.492365 
	C507.484650,14.565617 498.659607,10.383510 489.869263,5.579877 
	C488.472626,4.915940 487.237701,4.539191 485.618591,4.094955 
	C483.492188,3.741063 481.749908,3.454657 479.662231,2.985203 
	C477.557251,2.495868 475.797699,2.189581 474.025879,1.662587 
	C474.013641,1.441879 474.000000,1.000000 474.000000,1.000000 
z"/>
<path fill="#2AB9D4" opacity="1.000000" stroke="none" 
	d="
M490.030945,5.867063 
	C498.659607,10.383510 507.484650,14.565617 515.872314,19.492365 
	C529.505127,27.500002 535.596680,41.899788 543.990479,54.245663 
	C566.878845,87.910400 589.452820,121.788673 612.223450,155.533707 
	C632.073425,184.950424 651.936462,214.359116 671.970825,243.650192 
	C679.367493,254.464325 687.055664,265.075806 690.431152,277.983704 
	C691.417603,281.756104 691.674988,285.719238 692.633301,289.797485 
	C693.000000,299.020905 693.000000,308.041779 693.000000,317.531342 
	C692.016968,321.689819 691.105469,325.400848 690.018555,329.059814 
	C689.526184,330.717346 688.685791,332.271484 687.615417,334.782318 
	C681.536133,325.968262 675.935364,317.947021 670.436035,309.856903 
	C650.868347,281.070587 631.376099,252.233002 611.775208,223.469376 
	C597.596680,202.662842 583.236633,181.979950 569.055359,161.175201 
	C548.898254,131.603500 528.832642,101.969429 508.724274,72.364479 
	C503.579254,64.789635 498.448273,57.204937 493.247345,49.668587 
	C492.043243,47.923809 490.578827,46.358692 489.259460,44.018127 
	C489.522736,41.554131 489.954620,39.784260 489.966980,38.011467 
	C490.041565,27.297035 490.020203,16.581936 490.030945,5.867063 
z"/>
<path fill="#D06BA3" opacity="1.000000" stroke="none" 
	d="
M249.992447,639.835327 
	C248.455460,640.000671 246.918488,640.166016 245.190750,640.665649 
	C242.958328,641.000000 240.916672,641.000000 238.437500,640.531372 
	C237.997696,523.763062 237.995377,407.463409 237.993073,291.163757 
	C241.708481,290.790924 245.423904,290.418060 249.568390,290.561066 
	C249.995804,407.329712 249.994125,523.582520 249.992447,639.835327 
z"/>
<path fill="#D3639F" opacity="1.000000" stroke="none" 
	d="
M237.555298,291.103088 
	C237.995377,407.463409 237.997696,523.763062 238.000000,640.531372 
	C235.958328,641.000000 233.916672,641.000000 231.437500,641.000000 
	C229.910126,640.655029 228.820267,640.310059 227.364166,639.443542 
	C226.996582,523.336243 226.995224,407.750519 226.993866,292.164795 
	C230.368423,291.790680 233.742966,291.416534 237.555298,291.103088 
z"/>
<path fill="#61B4D0" opacity="1.000000" stroke="none" 
	d="
M449.009155,2.166075 
	C449.906158,1.985131 450.803162,1.804186 451.850098,1.311621 
	C454.370575,1.000000 456.741119,1.000000 459.555847,1.468657 
	C460.002350,14.902945 460.004669,27.868576 460.006989,40.834206 
	C456.615662,41.189354 453.224365,41.544502 449.418152,41.410671 
	C449.005219,28.003153 449.007172,15.084615 449.009155,2.166075 
z"/>
<path fill="#58B6D1" opacity="1.000000" stroke="none" 
	d="
M460.413910,40.894798 
	C460.004669,27.868576 460.002350,14.902945 460.000000,1.468657 
	C462.041656,1.000000 464.083344,1.000000 466.562500,1.468657 
	C467.002167,14.570403 467.004303,27.203491 467.006470,39.836578 
	C464.944580,40.209518 462.882721,40.582455 460.413910,40.894798 
z"/>
<path fill="#4FB6D2" opacity="1.000000" stroke="none" 
	d="
M467.440918,39.898720 
	C467.004303,27.203491 467.002167,14.570403 467.000000,1.468657 
	C469.041656,1.000000 471.083344,1.000000 473.562500,1.000000 
	C474.000000,1.000000 474.013641,1.441879 474.013855,2.139691 
	C474.012054,15.170341 474.010040,27.503180 474.008026,39.836018 
	C471.963806,39.877632 469.919617,39.919247 467.440918,39.898720 
z"/>
<path fill="#2AB9D4" opacity="1.000000" stroke="none" 
	d="
M440.038147,215.892654 
	C447.608521,226.727173 455.321472,237.465347 462.721313,248.415100 
	C481.576050,276.314819 500.240265,304.343201 519.076660,332.255371 
	C536.184204,357.605621 553.449768,382.849121 570.586975,408.179413 
	C585.702515,430.521606 600.774414,452.893768 615.718567,475.350494 
	C616.659790,476.764893 617.122498,479.392731 616.460632,480.839996 
	C610.058167,494.841187 603.367432,508.710571 596.758606,522.617371 
	C595.400269,525.475647 594.040039,528.333191 592.214417,532.171387 
	C586.381104,523.514954 581.201477,515.846802 576.040283,508.166351 
	C556.619507,479.265808 537.254456,450.327667 517.773376,421.467865 
	C499.289154,394.084717 480.660889,366.798889 462.146729,339.435883 
	C454.369720,327.941772 446.723267,316.359283 439.047913,304.040680 
	C439.385529,300.990723 439.953827,298.717804 439.960175,296.443298 
	C440.034821,269.593231 440.025421,242.742905 440.038147,215.892654 
z"/>
<path fill="#2AB9D4" opacity="1.000000" stroke="none" 
	d="
M474.106628,102.941139 
	C482.384369,114.874153 490.779938,126.727470 498.915558,138.756592 
	C516.403931,164.614395 533.721375,190.587769 551.179443,216.466187 
	C565.077881,237.068130 579.090637,257.592834 593.035522,278.163513 
	C614.042969,309.152618 634.402649,340.611786 656.400818,370.880463 
	C663.455078,380.586853 663.145508,387.521332 657.785156,396.903503 
	C652.524841,406.110809 648.592773,416.076324 644.058777,425.700104 
	C643.372986,427.155762 642.584106,428.562866 641.441040,430.767639 
	C639.660095,428.259857 638.275391,426.383392 636.966370,424.455536 
	C621.350891,401.458313 605.710693,378.477722 590.148193,355.444641 
	C569.011169,324.161102 547.979919,292.806091 526.817871,261.539520 
	C513.708801,242.171127 500.419556,222.924805 487.255707,203.593353 
	C482.113464,196.041809 477.093262,188.407166 472.151245,180.066956 
	C472.522949,177.368912 472.963287,175.414780 472.967743,173.459641 
	C473.017059,151.828339 472.971466,130.196777 473.046844,108.565613 
	C473.053375,106.689575 473.737335,104.815903 474.106628,102.941139 
z"/>
<path fill="#2AB9D4" opacity="1.000000" stroke="none" 
	d="
M492.049316,465.893829 
	C499.291351,476.349518 506.604401,486.756805 513.761169,497.270508 
	C530.688477,522.137573 547.544800,547.053040 564.422546,571.953857 
	C568.932373,578.607483 568.444702,581.981201 563.554688,588.059692 
	C554.422852,599.411072 542.823853,607.728638 530.317749,614.606995 
	C524.796021,617.643921 518.037231,618.829285 511.678741,619.836609 
	C505.192261,620.864197 498.507782,620.641602 491.455597,620.442261 
	C491.000824,570.840820 490.986420,521.763367 491.044464,472.685944 
	C491.047150,470.421509 491.699554,468.157837 492.049316,465.893829 
z"/>
<path fill="#AC98BD" opacity="1.000000" stroke="none" 
	d="
M347.037903,632.103516 
	C342.304779,632.718323 337.571655,633.333252 332.419006,633.440002 
	C331.999023,517.006897 331.998596,401.081940 331.998138,285.156982 
	C336.707703,284.786377 341.417236,284.415802 346.563171,284.556763 
	C347.012329,400.746735 347.025116,516.425110 347.037903,632.103516 
z"/>
<path fill="#B392BA" opacity="1.000000" stroke="none" 
	d="
M331.557922,285.099426 
	C331.998596,401.081940 331.999023,517.006897 331.998779,633.387451 
	C327.614471,634.214661 323.230835,634.586304 318.423187,634.444885 
	C317.998657,518.006775 317.998108,402.081726 317.997589,286.156677 
	C322.370972,285.785065 326.744324,285.413452 331.557922,285.099426 
z"/>
<path fill="#A59DC1" opacity="1.000000" stroke="none" 
	d="
M347.495239,632.064331 
	C347.025116,516.425110 347.012329,400.746735 346.998871,284.612823 
	C351.382080,283.785950 355.765900,283.414612 360.574890,283.554382 
	C360.999786,399.659027 360.999573,515.252563 360.999359,630.846069 
	C356.650421,631.239075 352.301483,631.632080 347.495239,632.064331 
z"/>
<path fill="#9FA1C4" opacity="1.000000" stroke="none" 
	d="
M361.453094,630.903687 
	C360.999573,515.252563 360.999786,399.659027 360.999634,283.609741 
	C367.505676,281.522980 371.604309,284.303986 373.723236,290.881897 
	C373.309906,292.828979 373.019440,294.133240 373.019318,295.437500 
	C373.010864,406.993317 373.024872,518.549133 373.037292,630.104980 
	C369.327148,630.390442 365.616974,630.675903 361.453094,630.903687 
z"/>
<path fill="#CC72A7" opacity="1.000000" stroke="none" 
	d="
M250.430542,639.899902 
	C249.994125,523.582520 249.995804,407.329712 249.994934,290.620728 
	C253.349670,290.101379 256.706970,290.038177 260.527161,290.406067 
	C260.991058,406.837189 260.992035,522.837219 260.993042,638.837158 
	C257.618225,639.212952 254.243439,639.588745 250.430542,639.899902 
z"/>
<path fill="#E32F8A" opacity="1.000000" stroke="none" 
	d="
M215.991989,245.829086 
	C199.715897,246.889282 183.432251,247.846985 167.166351,249.045486 
	C156.198334,249.853638 145.256943,251.019897 134.299423,251.977707 
	C132.667160,252.120377 131.011673,251.997543 128.721298,251.997543 
	C129.623047,250.060120 130.256683,248.616547 130.957245,247.206223 
	C138.316727,232.390961 145.708862,217.591888 153.031586,202.758530 
	C154.195389,200.401047 155.375488,199.020782 158.504562,198.880997 
	C175.296219,198.130798 192.071915,197.015213 208.849426,195.966812 
	C210.953476,195.835342 213.035736,195.355667 215.562363,195.561096 
	C215.995071,212.666290 215.993530,229.247681 215.991989,245.829086 
z"/>
<path fill="#DC4B94" opacity="1.000000" stroke="none" 
	d="
M202.901993,634.058350 
	C199.369736,632.609558 195.837494,631.160767 192.297272,629.018311 
	C192.526199,626.367615 192.969864,624.410645 192.970413,622.453613 
	C193.000839,513.024841 192.994263,403.596039 192.991394,294.167267 
	C196.372589,293.791565 199.753799,293.415863 203.566223,293.560150 
	C203.998322,405.360596 204.005020,516.641052 203.954239,627.921509 
	C203.953308,629.967224 203.267990,632.012695 202.901993,634.058350 
z"/>
<path fill="#DF4190" opacity="1.000000" stroke="none" 
	d="
M192.543671,294.104187 
	C192.994263,403.596039 193.000839,513.024841 192.970413,622.453613 
	C192.969864,624.410645 192.526199,626.367615 192.120300,628.716064 
	C188.715195,626.982483 185.479111,624.857300 182.114075,621.947388 
	C181.977158,512.402710 181.969177,403.642853 181.961197,294.882965 
	C185.339447,294.602325 188.717682,294.321716 192.543671,294.104187 
z"/>
<path fill="#C878AA" opacity="1.000000" stroke="none" 
	d="
M261.437897,638.900757 
	C260.992035,522.837219 260.991058,406.837189 260.981567,290.358704 
	C264.018677,289.601685 267.064301,289.323151 270.554108,289.559204 
	C270.998871,403.210907 270.992340,516.348022 271.041412,629.485107 
	C271.042633,632.269104 271.660156,635.052795 271.990234,637.836670 
	C268.621094,638.212585 265.251923,638.588440 261.437897,638.900757 
z"/>
<path fill="#B88DB7" opacity="1.000000" stroke="none" 
	d="
M317.558960,286.099091 
	C317.998108,402.081726 317.998657,518.006775 317.998413,634.387573 
	C314.926117,635.107971 311.854614,635.372742 308.391296,635.283936 
	C307.998932,519.006531 307.998444,403.082642 307.997955,287.158783 
	C311.038727,286.786346 314.079529,286.413910 317.558960,286.099091 
z"/>
<path fill="#BC89B5" opacity="1.000000" stroke="none" 
	d="
M307.550781,287.100037 
	C307.998444,403.082642 307.998932,519.006531 307.998779,635.386108 
	C305.295868,635.880920 302.593658,635.920044 299.445374,635.444580 
	C298.998932,519.006042 298.998474,403.082214 298.998016,287.158356 
	C301.699890,287.119354 304.401764,287.080353 307.550781,287.100037 
z"/>
<path fill="#D65C9C" opacity="1.000000" stroke="none" 
	d="
M226.547318,292.102905 
	C226.995224,407.750519 226.996582,523.336243 226.995880,639.378540 
	C224.138840,639.473145 221.283829,639.111206 218.207092,637.955200 
	C217.988815,522.162354 217.992264,407.163605 217.995712,292.164856 
	C220.697403,292.123566 223.399078,292.082306 226.547318,292.102905 
z"/>
<path fill="#99A4C6" opacity="1.000000" stroke="none" 
	d="
M373.483276,630.065063 
	C373.024872,518.549133 373.010864,406.993317 373.019318,295.437500 
	C373.019440,294.133240 373.309906,292.828979 373.778320,291.236481 
	C377.188141,295.543762 380.284424,300.139313 383.204102,305.541321 
	C382.684998,308.960754 382.044220,311.573578 382.042999,314.186707 
	C381.992950,419.405182 382.000732,524.623718 382.001099,629.842224 
	C379.310486,629.903198 376.619873,629.964172 373.483276,630.065063 
z"/>
<path fill="#C57DAD" opacity="1.000000" stroke="none" 
	d="
M272.425232,637.899292 
	C271.660156,635.052795 271.042633,632.269104 271.041412,629.485107 
	C270.992340,516.348022 270.998871,403.210907 270.996399,289.617798 
	C273.394928,288.806274 275.795288,288.450745 278.597321,288.583862 
	C278.997986,405.328094 278.997009,521.583740 278.996033,637.839355 
	C276.950775,637.880188 274.905518,637.921082 272.425232,637.899292 
z"/>
<path fill="#E1388C" opacity="1.000000" stroke="none" 
	d="
M181.521423,294.933594 
	C181.969177,403.642853 181.977158,512.402710 181.973267,621.639282 
	C178.971970,619.326660 175.982544,616.537415 172.944534,613.401306 
	C173.263962,611.010498 173.952957,608.966614 173.953964,606.922424 
	C174.005478,503.308441 173.998306,399.694458 173.994965,295.623108 
	C176.355545,295.105255 178.718582,295.044739 181.521423,294.933594 
z"/>
<path fill="#C380AF" opacity="1.000000" stroke="none" 
	d="
M279.394043,637.900024 
	C278.997009,521.583740 278.997986,405.328094 278.997437,288.616547 
	C281.039825,288.121765 283.083740,288.082947 285.563293,288.558472 
	C285.998108,404.994781 285.997223,520.916748 285.996368,636.838684 
	C283.928253,637.212708 281.860168,637.586731 279.394043,637.900024 
z"/>
<path fill="#BF86B3" opacity="1.000000" stroke="none" 
	d="
M298.591034,287.100281 
	C298.998474,403.082214 298.998932,519.006042 298.998627,635.385742 
	C296.929535,636.213318 294.861145,636.585022 292.395996,636.442627 
	C291.998657,520.005737 291.998108,404.083008 291.997559,288.160278 
	C294.059723,287.787598 296.121887,287.414917 298.591034,287.100281 
z"/>
<path fill="#D85799" opacity="1.000000" stroke="none" 
	d="
M217.597488,292.102356 
	C217.992264,407.163605 217.988815,522.162354 217.972992,637.638245 
	C215.898148,637.744263 213.835663,637.373230 211.385864,636.461670 
	C210.997681,521.669128 210.996780,407.417084 210.995865,293.165039 
	C213.063660,292.789978 215.131470,292.414917 217.597488,292.102356 
z"/>
<path fill="#DA5297" opacity="1.000000" stroke="none" 
	d="
M210.561661,293.101074 
	C210.996780,407.417084 210.997681,521.669128 210.997177,636.377930 
	C208.425156,636.116272 205.854538,635.397827 203.092957,634.368835 
	C203.267990,632.012695 203.953308,629.967224 203.954239,627.921509 
	C204.005020,516.641052 203.998322,405.360596 203.995056,293.623260 
	C206.037567,293.123291 208.082520,293.080200 210.561661,293.101074 
z"/>
<path fill="#89ABCB" opacity="1.000000" stroke="none" 
	d="
M410.003143,627.844727 
	C407.630859,627.881714 405.258545,627.918701 402.443634,627.443115 
	C402.000671,531.686279 401.992523,436.442078 402.043945,341.197876 
	C402.045258,338.765564 402.700256,336.333618 403.050354,333.901489 
	C405.696136,337.682312 408.341919,341.463135 410.727417,345.883118 
	C410.311432,348.326996 410.019867,350.131714 410.019470,351.936493 
	C409.998383,443.905914 410.002106,535.875305 410.003143,627.844727 
z"/>
<path fill="#95A6C7" opacity="1.000000" stroke="none" 
	d="
M382.399017,629.899475 
	C382.000732,524.623718 381.992950,419.405182 382.042999,314.186707 
	C382.044220,311.573578 382.684998,308.960754 383.112518,305.884949 
	C385.390533,308.062164 387.583527,310.702271 389.621460,313.933044 
	C389.310913,316.495239 389.019836,318.466705 389.019440,320.438202 
	C388.997742,423.240082 389.000641,526.041992 389.000946,628.843872 
	C386.932953,629.214844 384.864929,629.585754 382.399017,629.899475 
z"/>
<path fill="#8EAACA" opacity="1.000000" stroke="none" 
	d="
M403.010071,333.553467 
	C402.700256,336.333618 402.045258,338.765564 402.043945,341.197876 
	C401.992523,436.442078 402.000671,531.686279 402.002380,627.386230 
	C399.935028,628.212463 397.866333,628.583008 395.399231,628.442139 
	C395.000549,528.686951 394.992828,429.443146 395.043671,330.199371 
	C395.044922,327.766144 395.696167,325.333282 396.044250,322.900238 
	C398.352783,326.335297 400.661285,329.770355 403.010071,333.553467 
z"/>
<path fill="#C183B1" opacity="1.000000" stroke="none" 
	d="
M291.571899,288.100891 
	C291.998108,404.083008 291.998657,520.005737 291.998444,636.384216 
	C290.280975,636.880371 288.564270,636.920776 286.421997,636.899902 
	C285.997223,520.916748 285.998108,404.994781 285.997681,288.617004 
	C287.712982,288.121338 289.429596,288.081421 291.571899,288.100891 
z"/>
<path fill="#7BB0CD" opacity="1.000000" stroke="none" 
	d="
M431.004333,625.839111 
	C428.594147,626.106750 426.183929,626.374451 423.387390,626.284912 
	C423.000671,540.978577 422.992645,456.029572 423.045776,371.080566 
	C423.047058,369.034637 423.730042,366.989136 424.095032,364.943451 
	C426.546509,368.539886 428.997955,372.136353 431.263000,376.581665 
	C431.052521,460.233368 431.028412,543.036255 431.004333,625.839111 
z"/>
<path fill="#84ADCC" opacity="1.000000" stroke="none" 
	d="
M410.381287,627.749634 
	C410.002106,535.875305 409.998383,443.905914 410.019470,351.936493 
	C410.019867,350.131714 410.311432,348.326996 410.781006,346.234314 
	C413.326172,349.073303 415.557434,352.200256 417.628235,355.924408 
	C417.311859,358.326202 417.019989,360.130829 417.019531,361.935486 
	C416.998047,450.237305 417.001617,538.539124 417.002411,626.840942 
	C414.921448,627.112122 412.840454,627.383301 410.381287,627.749634 
z"/>
<path fill="#91A8C8" opacity="1.000000" stroke="none" 
	d="
M395.896240,322.595215 
	C395.696167,325.333282 395.044922,327.766144 395.043671,330.199371 
	C394.992828,429.443146 395.000549,528.686951 395.001648,628.386353 
	C393.285889,628.881409 391.569275,628.920837 389.426819,628.902100 
	C389.000641,526.041992 388.997742,423.240082 389.019440,320.438202 
	C389.019836,318.466705 389.310913,316.495239 389.780396,314.236023 
	C391.979034,316.728882 393.863647,319.509521 395.896240,322.595215 
z"/>
<path fill="#58B6D1" opacity="1.000000" stroke="none" 
	d="
M468.005981,622.841309 
	C465.281372,623.211548 462.556763,623.581787 459.417755,623.435608 
	C459.002289,556.844177 458.990875,490.769043 459.044037,424.693970 
	C459.045837,422.427765 459.694672,420.162079 460.041931,417.896149 
	C462.890594,422.174500 465.739258,426.452850 468.334991,431.564667 
	C468.056732,495.879181 468.031372,559.360229 468.005981,622.841309 
z"/>
<path fill="#74B1CE" opacity="1.000000" stroke="none" 
	d="
M431.411316,625.897949 
	C431.028412,543.036255 431.052521,460.233368 431.125671,376.915436 
	C433.999817,380.210175 436.824921,384.019989 439.261475,388.471649 
	C438.581940,391.039307 438.037567,392.964966 438.036530,394.890930 
	C437.995209,471.539337 438.003174,548.187805 438.004730,624.836243 
	C435.942596,625.209778 433.880493,625.583252 431.411316,625.897949 
z"/>
<path fill="#61B4D0" opacity="1.000000" stroke="none" 
	d="
M459.898529,417.586548 
	C459.694672,420.162079 459.045837,422.427765 459.044037,424.693970 
	C458.990875,490.769043 459.002289,556.844177 459.006165,623.375305 
	C456.634369,623.872742 454.259705,623.914124 451.443115,623.437988 
	C451.000793,553.460693 450.981262,484.000854 451.077545,414.541168 
	C451.080994,412.046265 452.226532,409.552948 452.839813,407.058899 
	C455.144928,410.464905 457.450043,413.870911 459.898529,417.586548 
z"/>
<path fill="#7FAECD" opacity="1.000000" stroke="none" 
	d="
M417.428162,626.900146 
	C417.001617,538.539124 416.998047,450.237305 417.019531,361.935486 
	C417.019989,360.130829 417.311859,358.326202 417.781769,356.233765 
	C420.059387,358.712860 422.023041,361.479736 424.040894,364.595032 
	C423.730042,366.989136 423.047058,369.034637 423.045776,371.080566 
	C422.992645,456.029572 423.000671,540.978577 423.002502,626.383423 
	C421.287262,626.879211 419.570587,626.919250 417.428162,626.900146 
z"/>
<path fill="#68B3CF" opacity="1.000000" stroke="none" 
	d="
M452.793243,406.719330 
	C452.226532,409.552948 451.080994,412.046265 451.077545,414.541168 
	C450.981262,484.000854 451.000793,553.460693 451.002228,623.376831 
	C448.941406,624.207153 446.879547,624.581238 444.409729,624.439636 
	C444.001160,550.179871 443.991302,476.435730 444.043915,402.691650 
	C444.045532,400.425446 444.696503,398.159668 445.044739,395.893707 
	C447.612061,399.389069 450.179352,402.884399 452.793243,406.719330 
z"/>
<path fill="#6DB2CF" opacity="1.000000" stroke="none" 
	d="
M444.899780,395.588013 
	C444.696503,398.159668 444.045532,400.425446 444.043915,402.691650 
	C443.991302,476.435730 444.001160,550.179871 444.003540,624.380005 
	C442.288788,624.876648 440.572266,624.917114 438.430237,624.896912 
	C438.003174,548.187805 437.995209,471.539337 438.036530,394.890930 
	C438.037567,392.964966 438.581940,391.039307 439.277588,388.837616 
	C441.373108,390.801941 443.063965,393.042145 444.899780,395.588013 
z"/>
<path fill="#48B7D3" opacity="1.000000" stroke="none" 
	d="
M478.006561,621.835938 
	C476.263062,622.209045 474.519562,622.582153 472.389099,622.437988 
	C472.001434,562.509460 471.989258,503.098236 472.044098,443.687042 
	C472.046204,441.421265 472.696289,439.156067 473.044434,436.890594 
	C474.690979,439.322754 476.337524,441.754944 477.999207,445.013855 
	C478.011780,504.505707 478.009186,563.170837 478.006561,621.835938 
z"/>
<path fill="#3FB8D3" opacity="1.000000" stroke="none" 
	d="
M478.431915,621.899170 
	C478.009186,563.170837 478.011780,504.505707 478.026489,445.363708 
	C480.295044,448.029816 482.551544,451.172852 484.640930,454.916687 
	C484.315857,457.154633 484.020569,458.791626 484.019897,460.428772 
	C483.998077,514.230896 484.004517,568.033081 484.006744,621.835205 
	C482.290253,621.877563 480.573761,621.919983 478.431915,621.899170 
z"/>
<path fill="#E32F8A" opacity="1.000000" stroke="none" 
	d="
M206.992065,149.830307 
	C197.496964,150.513931 188.001846,151.197556 177.655594,151.942459 
	C178.449326,149.889404 178.908600,148.265350 179.670593,146.798584 
	C186.534515,133.586075 193.555801,120.453835 200.268341,107.165398 
	C201.675308,104.380104 203.484650,103.721016 206.575943,104.410263 
	C206.989319,119.833961 206.990692,134.832138 206.992065,149.830307 
z"/>
<path fill="#61B4D0" opacity="1.000000" stroke="none" 
	d="
M409.009735,182.169357 
	C412.203125,182.949448 415.938873,178.907944 418.719879,183.971329 
	C418.473053,186.632339 418.034271,188.584442 418.030670,190.537354 
	C417.984253,215.631378 418.024933,240.725601 417.954529,265.819519 
	C417.948639,267.915710 417.300293,270.010132 416.950409,272.105377 
	C413.977570,267.667328 411.004730,263.229279 408.162872,258.050659 
	C408.529602,255.358063 408.966309,253.406448 408.970581,251.453888 
	C409.021027,228.359116 409.006897,205.264221 409.009735,182.169357 
z"/>
<path fill="#4FB6D2" opacity="1.000000" stroke="none" 
	d="
M472.900421,436.588165 
	C472.696289,439.156067 472.046204,441.421265 472.044098,443.687042 
	C471.989258,503.098236 472.001434,562.509460 472.004242,622.377319 
	C470.937866,622.877258 469.869415,622.920593 468.403442,622.902588 
	C468.031372,559.360229 468.056732,495.879181 468.144226,431.883057 
	C469.723022,433.007263 471.239716,434.646515 472.900421,436.588165 
z"/>
<path fill="#36B8D4" opacity="1.000000" stroke="none" 
	d="
M484.370422,621.898376 
	C484.004517,568.033081 483.998077,514.230896 484.019897,460.428772 
	C484.020569,458.791626 484.315857,457.154633 484.788422,455.231567 
	C486.064972,456.368469 487.026917,457.791321 488.001801,460.027588 
	C488.022888,514.265869 488.031006,567.690735 488.039124,621.115601 
	C486.937439,621.397583 485.835754,621.679565 484.370422,621.898376 
z"/>
<path fill="#A19FC3" opacity="1.000000" stroke="none" 
	d="
M353.999847,8.155900 
	C359.045959,7.785178 364.092102,7.414456 369.569214,7.555959 
	C370.000397,20.993074 370.000580,33.917965 370.000793,46.842857 
	C364.969452,47.214207 359.938141,47.585556 354.453400,47.444897 
	C353.999939,34.007229 353.999908,21.081564 353.999847,8.155900 
z"/>
<path fill="#A19FC3" opacity="1.000000" stroke="none" 
	d="
M340.962860,186.894669 
	C345.004059,186.610931 349.045227,186.327179 353.543365,186.556091 
	C354.000488,203.326767 354.000671,219.584747 354.000824,235.842743 
	C350.295074,236.213745 346.589325,236.584763 342.441956,236.444092 
	C341.654510,219.586487 341.308685,203.240585 340.962860,186.894669 
z"/>
<path fill="#C878AA" opacity="1.000000" stroke="none" 
	d="
M279.994507,99.163551 
	C284.026733,98.792099 288.058929,98.420639 292.543793,98.562622 
	C292.994354,113.995834 292.992279,128.915619 292.990204,143.835388 
	C288.960022,144.211060 284.929810,144.586716 280.448822,144.443390 
	C279.996826,129.004120 279.995667,114.083832 279.994507,99.163551 
z"/>
<path fill="#CC72A7" opacity="1.000000" stroke="none" 
	d="
M279.540039,99.103165 
	C279.995667,114.083832 279.996826,129.004120 279.996246,144.380417 
	C275.954803,145.213272 271.915161,145.590103 267.436157,145.445129 
	C266.994568,130.003723 266.992371,115.084091 266.990173,100.164459 
	C271.021973,99.790565 275.053741,99.416672 279.540039,99.103165 
z"/>
<path fill="#D167A1" opacity="1.000000" stroke="none" 
	d="
M266.530701,100.104645 
	C266.992371,115.084091 266.994568,130.003723 266.993530,145.379608 
	C262.945618,146.212982 258.900909,146.590118 254.426239,146.443665 
	C253.993790,130.669098 253.991318,115.418098 253.988831,100.167099 
	C258.016296,100.126343 262.043732,100.085587 266.530701,100.104645 
z"/>
<path fill="#A99ABF" opacity="1.000000" stroke="none" 
	d="
M353.574188,8.098475 
	C353.999908,21.081564 353.999939,34.007229 353.999939,47.388508 
	C349.300903,48.215435 344.601990,48.586742 339.450989,48.445274 
	C338.998505,35.007076 338.998047,22.081657 338.997589,9.156242 
	C343.714569,8.784511 348.431549,8.412779 353.574188,8.098475 
z"/>
<path fill="#C878AA" opacity="1.000000" stroke="none" 
	d="
M255.986969,15.165848 
	C260.360138,14.791550 264.733307,14.417253 269.552490,14.557695 
	C269.997253,27.994881 269.996002,40.917328 269.994751,53.839775 
	C265.615479,54.215248 261.236176,54.590721 256.426025,54.444229 
	C255.992432,41.003464 255.989700,28.084656 255.986969,15.165848 
z"/>
<path fill="#C183B1" opacity="1.000000" stroke="none" 
	d="
M281.994507,13.160934 
	C286.374420,12.789711 290.754303,12.418487 295.566071,12.559654 
	C295.996368,25.994452 295.994781,38.916855 295.993225,51.839264 
	C291.626007,52.213337 287.258820,52.587410 282.444885,52.444420 
	C281.996948,39.005215 281.995728,26.083075 281.994507,13.160934 
z"/>
<path fill="#99A4C6" opacity="1.000000" stroke="none" 
	d="
M354.449768,235.900543 
	C354.000671,219.584747 354.000488,203.326767 354.000641,186.613281 
	C357.373566,185.785995 360.746124,185.414185 364.559753,185.555069 
	C365.012909,202.413818 365.024994,218.759903 365.037048,235.105988 
	C361.657623,235.390106 358.278137,235.674225 354.449768,235.900543 
z"/>
<path fill="#A19FC3" opacity="1.000000" stroke="none" 
	d="
M372.999847,138.842331 
	C369.288269,139.213562 365.576691,139.584793 361.432678,139.444366 
	C361.000488,123.673737 361.000732,108.414726 361.001007,93.155731 
	C364.696533,93.118591 368.392059,93.081451 372.544189,93.558029 
	C373.000488,108.995270 373.000153,123.918800 372.999847,138.842331 
z"/>
<path fill="#D3639F" opacity="1.000000" stroke="none" 
	d="
M247.990219,193.159576 
	C251.374908,192.786392 254.759598,192.413208 258.571228,192.556641 
	C258.996307,209.662247 258.994415,226.251205 258.992554,242.840179 
	C255.602112,243.216537 252.211685,243.592880 248.409546,243.447830 
	C247.995316,226.337479 247.992767,209.748535 247.990219,193.159576 
z"/>
<path fill="#91A8C8" opacity="1.000000" stroke="none" 
	d="
M365.484558,235.065216 
	C365.024994,218.759903 365.012909,202.413818 365.001648,185.612076 
	C368.383301,184.784592 371.764099,184.412781 375.572937,184.554779 
	C376.012848,201.415268 376.024750,217.761917 376.036682,234.108582 
	C372.668488,234.413864 369.300293,234.719162 365.484558,235.065216 
z"/>
<path fill="#DC4B94" opacity="1.000000" stroke="none" 
	d="
M191.991638,20.164463 
	C196.356110,19.790646 200.720596,19.416826 205.540955,19.563519 
	C205.995285,32.665791 205.993729,45.247551 205.992157,57.829308 
	C201.629105,58.211086 197.266052,58.592865 192.450195,58.447933 
	C191.995483,45.335636 191.993561,32.750050 191.991638,20.164463 
z"/>
<path fill="#BF86B3" opacity="1.000000" stroke="none" 
	d="
M315.994141,142.840286 
	C312.270599,143.193985 308.547058,143.547684 304.410828,143.414551 
	C303.996918,127.672134 303.995728,112.416557 303.994537,97.160988 
	C307.386993,96.809570 310.779419,96.458145 314.597351,96.542892 
	C315.348572,99.735588 315.933563,102.490051 315.955475,105.248985 
	C316.055115,117.778732 315.996094,130.309738 315.994141,142.840286 
z"/>
<path fill="#A99ABF" opacity="1.000000" stroke="none" 
	d="
M340.512817,186.934601 
	C341.308685,203.240585 341.654510,219.586487 342.000641,236.387970 
	C338.616333,237.214920 335.231689,237.586288 331.423462,237.445404 
	C330.999451,220.340607 330.999054,203.748062 330.998627,187.155533 
	C334.019989,187.095200 337.041382,187.034866 340.512817,186.934601 
z"/>
<path fill="#4FB6D2" opacity="1.000000" stroke="none" 
	d="
M422.090210,188.948669 
	C424.060730,191.712296 426.031250,194.475922 427.738708,197.876999 
	C427.317078,200.316315 427.022675,202.118027 427.020477,203.920090 
	C426.990173,228.884277 427.025146,253.848587 426.954163,278.812622 
	C426.948181,280.911316 426.296387,283.008179 425.944641,285.105896 
	C423.968872,282.319519 421.993103,279.533112 420.276611,276.109619 
	C420.691010,273.667816 420.979065,271.863251 420.981201,270.058350 
	C421.010773,244.902267 420.977966,219.746048 421.048187,194.590118 
	C421.053436,192.708679 421.727234,190.829117 422.090210,188.948669 
z"/>
<path fill="#B094BB" opacity="1.000000" stroke="none" 
	d="
M338.574219,9.099249 
	C338.998047,22.081657 338.998505,35.007076 338.998230,48.388123 
	C334.962891,49.215057 330.928253,49.586361 326.446777,49.445198 
	C325.999847,36.007088 325.999664,23.081440 325.999481,10.155791 
	C330.049927,9.784614 334.100403,9.413435 338.574219,9.099249 
z"/>
<path fill="#D06BA3" opacity="1.000000" stroke="none" 
	d="
M255.544724,15.107870 
	C255.989700,28.084656 255.992432,41.003464 255.991058,54.378212 
	C251.942093,55.209133 247.897278,55.584118 243.425507,55.439072 
	C242.997879,42.002357 242.997208,29.085674 242.996521,16.168989 
	C247.031845,15.795958 251.067154,15.422924 255.544724,15.107870 
z"/>
<path fill="#8EAACA" opacity="1.000000" stroke="none" 
	d="
M394.002960,6.155684 
	C398.033691,5.783232 402.064423,5.410779 406.548218,5.553615 
	C407.002960,18.994604 407.004608,31.920301 407.006226,44.846001 
	C402.977570,44.882683 398.948914,44.919369 394.460114,44.442814 
	C394.000977,31.338278 394.001953,18.746981 394.002960,6.155684 
z"/>
<path fill="#99A4C6" opacity="1.000000" stroke="none" 
	d="
M373.445068,138.900024 
	C373.000153,123.918800 373.000488,108.995270 373.001831,93.616272 
	C376.373230,92.788315 379.743591,92.415825 383.557526,92.556236 
	C384.001801,107.993324 384.002533,122.917503 384.003296,137.841675 
	C380.632294,138.213684 377.261292,138.585693 373.445068,138.900024 
z"/>
<path fill="#C380AF" opacity="1.000000" stroke="none" 
	d="
M303.565491,97.102638 
	C303.995728,112.416557 303.996918,127.672134 303.996368,143.383453 
	C300.629944,143.880768 297.265228,143.922348 293.445374,143.899658 
	C292.992279,128.915619 292.994354,113.995834 292.993286,98.620377 
	C296.372284,97.791237 299.754364,97.417763 303.565491,97.102638 
z"/>
<path fill="#A59DC1" opacity="1.000000" stroke="none" 
	d="
M360.589233,93.129120 
	C361.000732,108.414726 361.000488,123.673737 361.000610,139.388336 
	C357.608704,140.193634 354.216400,140.543320 350.412659,140.412598 
	C350.001312,124.673721 350.001404,109.415230 350.001495,94.156746 
	C353.393463,93.805344 356.785461,93.453934 360.589233,93.129120 
z"/>
<path fill="#D65C9C" opacity="1.000000" stroke="none" 
	d="
M253.593506,100.270569 
	C253.991318,115.418098 253.993790,130.669098 253.993042,146.376404 
	C250.600296,147.195786 247.210770,147.558838 243.409973,147.422150 
	C242.997742,131.669647 242.996796,116.416901 242.995850,101.164146 
	C246.396622,100.900772 249.797394,100.637405 253.593506,100.270569 
z"/>
<path fill="#B88DB7" opacity="1.000000" stroke="none" 
	d="
M310.997559,189.158539 
	C314.037506,188.788254 317.077484,188.417969 320.557709,188.558792 
	C320.996887,205.661789 320.995758,222.253662 320.994659,238.845535 
	C317.962982,238.883209 314.931305,238.920883 311.449280,238.444397 
	C310.998505,221.673019 310.998047,205.415787 310.997559,189.158539 
z"/>
<path fill="#D06BA3" opacity="1.000000" stroke="none" 
	d="
M259.418701,242.904785 
	C258.994415,226.251205 258.996307,209.662247 258.995361,192.616547 
	C262.019073,192.098755 265.045624,192.037704 268.531036,192.407623 
	C268.990692,209.170654 268.991455,225.502731 268.992188,241.834793 
	C265.943054,242.212997 262.893951,242.591202 259.418701,242.904785 
z"/>
<path fill="#B094BB" opacity="1.000000" stroke="none" 
	d="
M321.387329,238.744431 
	C320.995758,222.253662 320.996887,205.661789 320.996033,188.614395 
	C324.051239,187.786438 327.108398,187.413986 330.582092,187.098541 
	C330.999054,203.748062 330.999451,220.340607 330.999237,237.388824 
	C327.925751,238.110779 324.852905,238.377060 321.387329,238.744431 
z"/>
<path fill="#C878AA" opacity="1.000000" stroke="none" 
	d="
M277.993896,191.166626 
	C281.045166,190.792007 284.096466,190.417374 287.572021,190.559875 
	C287.994232,207.662689 287.992157,224.248413 287.990082,240.834122 
	C285.304779,240.896301 282.619476,240.958466 279.319458,240.667450 
	C278.469788,238.364853 278.039215,236.416260 278.031158,234.465927 
	C277.971466,220.033005 277.995911,205.599762 277.993896,191.166626 
z"/>
<path fill="#2EB9D4" opacity="1.000000" stroke="none" 
	d="
M488.408936,621.067017 
	C488.031006,567.690735 488.022888,514.265869 488.026672,460.364441 
	C489.355591,461.660400 490.672516,463.432861 492.019409,465.549591 
	C491.699554,468.157837 491.047150,470.421509 491.044464,472.685944 
	C490.986420,521.763367 491.000824,570.840820 491.002441,620.375366 
	C490.262024,620.894531 489.520386,620.956482 488.408936,621.067017 
z"/>
<path fill="#C57DAD" opacity="1.000000" stroke="none" 
	d="
M281.567810,13.102166 
	C281.995728,26.083075 281.996948,39.005215 281.996338,52.383209 
	C278.286011,53.214249 274.577484,53.589436 270.431885,53.902199 
	C269.996002,40.917328 269.997253,27.994881 269.996643,14.616335 
	C273.710205,13.787954 277.425690,13.415676 281.567810,13.102166 
z"/>
<path fill="#D167A1" opacity="1.000000" stroke="none" 
	d="
M242.551636,16.106241 
	C242.997208,29.085674 242.997879,42.002357 242.997528,55.375031 
	C239.270981,56.193531 235.545471,56.556053 231.408035,56.419006 
	C230.993973,43.002331 230.991837,30.085230 230.989716,17.168129 
	C234.695404,16.793251 238.401077,16.418373 242.551636,16.106241 
z"/>
<path fill="#95A6C7" opacity="1.000000" stroke="none" 
	d="
M393.545105,6.096147 
	C394.001953,18.746981 394.000977,31.338278 394.000000,44.385368 
	C390.301300,45.212502 386.602570,45.583843 382.452332,45.443192 
	C382.001434,32.006535 382.001984,19.081863 382.002563,6.157194 
	C385.697479,6.116999 389.392365,6.076804 393.545105,6.096147 
z"/>
<path fill="#99A4C6" opacity="1.000000" stroke="none" 
	d="
M381.588257,6.129849 
	C382.001984,19.081863 382.001434,32.006535 382.001648,45.386726 
	C378.298828,46.214432 374.595245,46.586613 370.446228,46.900826 
	C370.000580,33.917965 370.000397,20.993074 370.000488,7.612664 
	C373.725189,6.805599 377.449585,6.454051 381.588257,6.129849 
z"/>
<path fill="#7BB0CD" opacity="1.000000" stroke="none" 
	d="
M418.007965,4.162578 
	C421.722382,3.788608 425.436798,3.414639 429.576477,3.557754 
	C430.002716,16.995449 430.003754,29.916061 430.004791,42.836670 
	C426.286896,43.208134 422.568970,43.579601 418.426941,43.438644 
	C418.004547,30.005007 418.006256,17.083792 418.007965,4.162578 
z"/>
<path fill="#DC4B94" opacity="1.000000" stroke="none" 
	d="
M232.988281,147.838150 
	C229.939514,148.215332 226.890762,148.592514 223.419220,148.443359 
	C222.997406,137.490768 223.101059,127.063057 222.952133,116.638939 
	C222.886597,112.050293 222.307297,107.468994 221.961243,102.884354 
	C225.338440,102.603226 228.715637,102.322090 232.544769,102.558548 
	C232.993896,117.996803 232.991089,132.917480 232.988281,147.838150 
z"/>
<path fill="#B88DB7" opacity="1.000000" stroke="none" 
	d="
M316.415771,142.901169 
	C315.996094,130.309738 316.055115,117.778732 315.955475,105.248985 
	C315.933563,102.490051 315.348572,99.735588 315.008911,96.568909 
	C318.359192,96.120201 321.723389,96.081642 325.543579,96.555435 
	C325.998718,111.993301 325.997925,126.918823 325.997131,141.844345 
	C322.943909,142.216919 319.890656,142.589478 316.415771,142.901169 
z"/>
<path fill="#61B4D0" opacity="1.000000" stroke="none" 
	d="
M439.009003,88.165031 
	C441.711273,88.121368 444.413513,88.077698 447.559265,88.555328 
	C448.001801,104.995544 448.039368,120.914658 447.953552,136.833115 
	C447.942261,138.925400 447.300140,141.014282 446.950195,143.104767 
	C444.507141,141.120239 442.064117,139.135712 439.312012,136.538574 
	C439.004944,120.005646 439.006958,104.085335 439.009003,88.165031 
z"/>
<path fill="#AC98BD" opacity="1.000000" stroke="none" 
	d="
M349.570374,94.099121 
	C350.001404,109.415230 350.001312,124.673721 350.001404,140.387756 
	C346.968353,140.881470 343.935181,140.919617 340.450989,140.445068 
	C340.000031,125.006989 340.000061,110.081596 340.000092,95.156212 
	C343.046478,94.784645 346.092834,94.413078 349.570374,94.099121 
z"/>
<path fill="#D85799" opacity="1.000000" stroke="none" 
	d="
M233.438782,147.907272 
	C232.991089,132.917480 232.993896,117.996803 232.992493,102.619003 
	C236.040207,101.787254 239.092102,101.412628 242.569931,101.101074 
	C242.996796,116.416901 242.997742,131.669647 242.997269,147.379181 
	C239.960327,147.882782 236.924820,147.929596 233.438782,147.907272 
z"/>
<path fill="#CC72A7" opacity="1.000000" stroke="none" 
	d="
M277.559143,191.106079 
	C277.995911,205.599762 277.971466,220.033005 278.031158,234.465927 
	C278.039215,236.416260 278.469788,238.364853 278.874359,240.705688 
	C275.988770,241.385925 272.933502,241.674728 269.435242,241.899170 
	C268.991455,225.502731 268.990692,209.170654 268.981628,192.360474 
	C271.690369,191.603424 274.407379,191.324478 277.559143,191.106079 
z"/>
<path fill="#D85799" opacity="1.000000" stroke="none" 
	d="
M247.560944,193.100433 
	C247.992767,209.748535 247.995316,226.337479 247.994034,243.383453 
	C245.286972,243.883774 242.583740,243.927063 239.438141,243.444366 
	C238.993469,226.668610 238.991165,210.418839 238.988861,194.169067 
	C241.703140,193.793152 244.417404,193.417236 247.560944,193.100433 
z"/>
<path fill="#89ABCB" opacity="1.000000" stroke="none" 
	d="
M376.471954,234.066406 
	C376.024750,217.761917 376.012848,201.415268 376.002136,184.612854 
	C378.693848,184.093414 381.384338,184.029724 384.531586,184.404526 
	C384.992188,199.548569 385.031555,214.254333 384.951904,228.959427 
	C384.942688,230.659714 384.271851,232.356415 383.907776,234.054779 
	C381.574249,234.044601 379.240723,234.034409 376.471954,234.066406 
z"/>
<path fill="#3AB8D3" opacity="1.000000" stroke="none" 
	d="
M434.109863,206.940598 
	C435.409576,208.712433 436.709320,210.484283 437.741760,212.885971 
	C437.316315,215.315018 437.022614,217.114059 437.020416,218.913452 
	C436.990112,243.673050 437.040710,268.432892 436.920868,293.191956 
	C436.911530,295.122589 435.779114,297.047760 435.168671,298.975464 
	C434.117310,297.578522 433.065918,296.181610 431.998047,293.973969 
	C431.987701,266.863525 431.938293,240.563446 432.091766,214.264557 
	C432.106079,211.819412 433.406586,209.381744 434.109863,206.940598 
z"/>
<path fill="#6BB3CF" opacity="1.000000" stroke="none" 
	d="
M408.584473,182.104004 
	C409.006897,205.264221 409.021027,228.359116 408.970581,251.453888 
	C408.966309,253.406448 408.529602,255.358063 408.121155,257.699646 
	C405.796844,255.158417 403.645203,252.227631 401.718140,248.493805 
	C402.295135,245.255554 402.942505,242.821625 402.953339,240.384872 
	C403.039673,220.977859 403.005280,201.570282 403.007935,182.162903 
	C404.725006,182.121475 406.442108,182.080048 408.584473,182.104004 
z"/>
<path fill="#84ADCC" opacity="1.000000" stroke="none" 
	d="
M417.569611,4.100626 
	C418.006256,17.083792 418.004547,30.005007 418.005432,43.381821 
	C414.602814,44.102249 411.197662,44.367085 407.399353,44.738960 
	C407.004608,31.920301 407.002960,18.994604 407.003113,5.613074 
	C410.380341,4.784387 413.755798,4.411530 417.569611,4.100626 
z"/>
<path fill="#B88DB7" opacity="1.000000" stroke="none" 
	d="
M304.998993,12.156247 
	C308.368469,11.785098 311.737946,11.413949 315.553467,11.554453 
	C315.998688,24.992672 315.997925,37.919239 315.997131,50.845810 
	C312.976044,50.907883 309.954926,50.969955 306.425507,50.647282 
	C305.611572,48.156544 305.059875,46.052666 305.041779,43.944210 
	C304.950897,33.348877 304.999420,22.752352 304.998993,12.156247 
z"/>
<path fill="#84ADCC" opacity="1.000000" stroke="none" 
	d="
M406.003571,90.157784 
	C408.706146,90.117424 411.408691,90.077065 414.556274,90.553177 
	C415.002563,105.993889 415.003815,120.918114 415.005066,135.842346 
	C412.287964,136.213394 409.570892,136.584427 406.427368,136.442871 
	C406.001831,120.672791 406.002686,105.415291 406.003571,90.157784 
z"/>
<path fill="#7BB0CD" opacity="1.000000" stroke="none" 
	d="
M415.452148,135.900345 
	C415.003815,120.918114 415.002563,105.993889 415.003204,90.613625 
	C417.727264,89.784393 420.449432,89.411194 423.586304,89.554260 
	C424.002014,105.327621 424.003021,120.584709 424.004028,135.841797 
	C421.302429,135.880646 418.600830,135.919495 415.452148,135.900345 
z"/>
<path fill="#91A8C8" opacity="1.000000" stroke="none" 
	d="
M384.450378,137.899734 
	C384.002533,122.917503 384.001801,107.993324 384.002136,92.613617 
	C386.728180,91.786972 389.453094,91.415855 392.589111,91.557243 
	C393.000519,107.326942 393.000824,122.584145 393.001129,137.841339 
	C390.299896,137.880157 387.598694,137.918961 384.450378,137.899734 
z"/>
<path fill="#DF4190" opacity="1.000000" stroke="none" 
	d="
M221.521286,102.934425 
	C222.307297,107.468994 222.886597,112.050293 222.952133,116.638939 
	C223.101059,127.063057 222.997406,137.490768 222.993713,148.373840 
	C220.303299,148.896210 217.615601,148.961746 214.470825,148.595490 
	C214.006744,133.165543 213.999725,118.167381 213.992706,103.169235 
	C216.355576,103.107651 218.718460,103.046074 221.521286,102.934425 
z"/>
<path fill="#3AB8D3" opacity="1.000000" stroke="none" 
	d="
M468.160706,174.954742 
	C466.551453,172.747192 464.942200,170.539612 463.597168,167.491058 
	C463.907623,143.843109 463.918945,121.035965 464.045197,98.229454 
	C464.060608,95.446686 464.693085,92.667320 465.039581,89.886383 
	C466.688507,91.986992 468.337463,94.087593 469.992676,96.966454 
	C469.665985,100.848480 469.057220,103.951126 469.044495,107.056213 
	C468.958984,127.943237 469.019989,148.830841 468.963654,169.718063 
	C468.958954,171.464325 468.440491,173.209213 468.160706,174.954742 
z"/>
<path fill="#E1388C" opacity="1.000000" stroke="none" 
	d="
M216.406158,245.898651 
	C215.993530,229.247681 215.995071,212.666290 215.994293,195.627899 
	C218.365601,195.129883 220.739227,195.088837 223.554321,195.570450 
	C223.993896,212.335571 223.992020,228.578049 223.990158,244.820496 
	C221.600220,245.203064 219.210281,245.585632 216.406158,245.898651 
z"/>
<path fill="#DC4B94" opacity="1.000000" stroke="none" 
	d="
M238.548096,194.107071 
	C238.991165,210.418839 238.993469,226.668610 238.992294,243.375031 
	C236.598343,244.208862 234.207855,244.586029 231.406189,244.436798 
	C230.993469,227.332626 230.991913,210.754852 230.990372,194.177078 
	C233.362686,194.133072 235.735001,194.089066 238.548096,194.107071 
z"/>
<path fill="#BC89B5" opacity="1.000000" stroke="none" 
	d="
M310.556183,189.099823 
	C310.998047,205.415787 310.998505,221.673019 310.998291,238.385986 
	C308.604706,239.214111 306.211761,239.586517 303.409241,239.445282 
	C302.999176,222.339920 302.998688,205.748184 302.998230,189.156464 
	C305.370422,189.118011 307.742615,189.079575 310.556183,189.099823 
z"/>
<path fill="#BF86B3" opacity="1.000000" stroke="none" 
	d="
M302.587463,189.098206 
	C302.998688,205.748184 302.999176,222.339920 302.998962,239.387604 
	C300.624725,239.883530 298.251190,239.923477 295.438416,239.447525 
	C294.997986,222.672989 294.996857,206.414337 294.995728,190.155670 
	C297.389374,189.783768 299.783051,189.411850 302.587463,189.098206 
z"/>
<path fill="#D65C9C" opacity="1.000000" stroke="none" 
	d="
M230.548141,17.107887 
	C230.991837,30.085230 230.993973,43.002331 230.992889,56.375702 
	C227.958145,56.875011 224.926605,56.918056 221.446472,56.438324 
	C220.986496,43.241859 220.975159,30.568180 220.963806,17.894501 
	C224.011398,17.612217 227.058975,17.329931 230.548141,17.107887 
z"/>
<path fill="#B392BA" opacity="1.000000" stroke="none" 
	d="
M316.413727,50.904305 
	C315.997925,37.919239 315.998688,24.992672 315.998291,11.610159 
	C319.047119,10.782638 322.097107,10.411064 325.573303,10.097641 
	C325.999664,23.081440 325.999847,36.007088 325.999725,49.388466 
	C322.943085,50.217068 319.886688,50.589935 316.413727,50.904305 
z"/>
<path fill="#6BB3CF" opacity="1.000000" stroke="none" 
	d="
M448.570709,2.101017 
	C449.007172,15.084615 449.005219,28.003153 449.006226,41.377678 
	C445.975800,41.873917 442.942352,41.914162 439.455811,41.439224 
	C439.004486,28.337065 439.006317,15.750095 439.008118,3.163127 
	C442.049500,2.787405 445.090881,2.411681 448.570709,2.101017 
z"/>
<path fill="#44B7D3" opacity="1.000000" stroke="none" 
	d="
M465.004395,89.507408 
	C464.693085,92.667320 464.060608,95.446686 464.045197,98.229454 
	C463.918945,121.035965 463.907623,143.843109 463.737671,167.161453 
	C462.083710,165.719391 460.553467,163.765930 459.002838,160.986069 
	C458.991608,135.828751 459.000763,111.497826 459.009888,87.166908 
	C460.996338,87.820747 462.982788,88.474586 465.004395,89.507408 
z"/>
<path fill="#74B1CE" opacity="1.000000" stroke="none" 
	d="
M402.620361,182.100189 
	C403.005280,201.570282 403.039673,220.977859 402.953339,240.384872 
	C402.942505,242.821625 402.295135,245.255554 401.827393,248.151154 
	C399.881134,246.293335 398.050171,243.975143 396.375244,241.066986 
	C396.687561,238.675034 396.975739,236.873306 396.979523,235.070999 
	C397.015686,217.767944 397.003906,200.464767 397.005859,183.161652 
	C398.748169,182.786926 400.490448,182.412216 402.620361,182.100189 
z"/>
<path fill="#6BB3CF" opacity="1.000000" stroke="none" 
	d="
M438.598358,88.100433 
	C439.006958,104.085335 439.004944,120.005646 439.006073,136.382019 
	C436.597595,136.211945 434.185974,135.585800 431.388275,134.442902 
	C431.004028,119.004486 431.005859,104.082832 431.007660,89.161171 
	C433.401001,88.786064 435.794373,88.410950 438.598358,88.100433 
z"/>
<path fill="#58B6D1" opacity="1.000000" stroke="none" 
	d="
M447.100830,143.413239 
	C447.300140,141.014282 447.942261,138.925400 447.953552,136.833115 
	C448.039368,120.914658 448.001801,104.995544 448.005737,88.619965 
	C449.746399,87.786407 451.484039,87.409531 453.611755,87.553864 
	C454.001099,107.326637 454.032684,126.578331 453.953461,145.829575 
	C453.944855,147.922531 453.296051,150.012863 452.944153,152.104401 
	C451.046600,149.310165 449.149048,146.515930 447.100830,143.413239 
z"/>
<path fill="#7FAECD" opacity="1.000000" stroke="none" 
	d="
M384.117188,234.343292 
	C384.271851,232.356415 384.942688,230.659714 384.951904,228.959427 
	C385.031555,214.254333 384.992188,199.548569 384.977966,184.364777 
	C387.036499,183.605072 389.105377,183.323593 391.587463,183.556610 
	C392.000458,199.675308 392.049500,215.279892 391.933105,230.883240 
	C391.919617,232.688354 390.987061,234.486603 390.480621,236.288040 
	C388.429291,235.735962 386.377960,235.183884 384.117188,234.343292 
z"/>
<path fill="#BC89B5" opacity="1.000000" stroke="none" 
	d="
M304.551788,12.097868 
	C304.999420,22.752352 304.950897,33.348877 305.041779,43.944210 
	C305.059875,46.052666 305.611572,48.156544 305.974823,50.687462 
	C302.981567,51.395802 299.930634,51.679214 296.436462,51.900940 
	C295.994781,38.916855 295.996368,25.994452 295.995575,12.616399 
	C298.697021,12.120331 301.400787,12.079910 304.551788,12.097868 
z"/>
<path fill="#4FB6D2" opacity="1.000000" stroke="none" 
	d="
M452.983337,152.453430 
	C453.296051,150.012863 453.944855,147.922531 453.953461,145.829575 
	C454.032684,126.578331 454.001099,107.326637 454.004089,87.618256 
	C455.398651,87.118256 456.790985,87.075073 458.596588,87.099396 
	C459.000763,111.497826 458.991608,135.828751 458.967773,160.636581 
	C456.976227,158.343140 454.999359,155.572800 452.983337,152.453430 
z"/>
<path fill="#74B1CE" opacity="1.000000" stroke="none" 
	d="
M438.561218,3.099507 
	C439.006317,15.750095 439.004486,28.337065 439.005341,41.379967 
	C436.290161,42.209221 433.572357,42.582535 430.429657,42.896263 
	C430.003754,29.916061 430.002716,16.995449 430.003235,3.619080 
	C432.707977,3.120845 435.411133,3.078367 438.561218,3.099507 
z"/>
<path fill="#D85799" opacity="1.000000" stroke="none" 
	d="
M220.517715,17.939352 
	C220.975159,30.568180 220.986496,43.241859 220.996521,56.371738 
	C218.275558,57.206535 215.555923,57.585136 212.417343,57.441090 
	C211.997498,44.001759 211.996597,31.085077 211.995712,18.168394 
	C214.687683,18.106998 217.379654,18.045601 220.517715,17.939352 
z"/>
<path fill="#DF4190" opacity="1.000000" stroke="none" 
	d="
M230.583847,194.113281 
	C230.991913,210.754852 230.993469,227.332626 230.992676,244.366669 
	C228.945847,244.869415 226.901352,244.915909 224.423523,244.891449 
	C223.992020,228.578049 223.993896,212.335571 223.994446,195.636810 
	C226.054520,194.803497 228.115921,194.426498 230.583847,194.113281 
z"/>
<path fill="#C380AF" opacity="1.000000" stroke="none" 
	d="
M294.560791,190.097549 
	C294.996857,206.414337 294.997986,222.672989 294.997375,239.387817 
	C292.928284,240.216400 290.860992,240.588806 288.391876,240.897675 
	C287.992157,224.248413 287.994232,207.662689 287.993164,190.621399 
	C290.035278,190.123688 292.080566,190.081558 294.560791,190.097549 
z"/>
<path fill="#E1388C" opacity="1.000000" stroke="none" 
	d="
M174.996170,23.627926 
	C177.716415,22.442591 180.438141,21.714510 183.574051,21.411930 
	C183.989166,34.501102 183.990067,47.164780 183.990967,59.828461 
	C181.281067,60.225624 178.571167,60.622784 175.452423,61.066288 
	C175.028275,48.770149 175.012955,36.427666 174.996170,23.627926 
z"/>
<path fill="#E1388C" opacity="1.000000" stroke="none" 
	d="
M213.579193,103.105072 
	C213.999725,118.167381 214.006744,133.165543 214.025192,148.640701 
	C211.964157,149.401733 209.891678,149.685776 207.405640,149.900055 
	C206.990692,134.832138 206.989319,119.833961 206.979065,104.358788 
	C209.035370,103.601494 211.100525,103.321205 213.579193,103.105072 
z"/>
<path fill="#B392BA" opacity="1.000000" stroke="none" 
	d="
M326.432068,141.903687 
	C325.997925,126.918823 325.998718,111.993301 325.998444,96.611977 
	C328.063477,95.785347 330.129578,95.414520 332.597839,95.554947 
	C332.999634,111.325935 332.999298,126.585678 332.998962,141.845428 
	C330.954987,141.884613 328.910980,141.923813 326.432068,141.903687 
z"/>
<path fill="#74B1CE" opacity="1.000000" stroke="none" 
	d="
M430.573181,89.097794 
	C431.005859,104.082832 431.004028,119.004486 431.004761,134.382294 
	C428.940826,135.212128 426.874298,135.585815 424.405884,135.900650 
	C424.003021,120.584709 424.002014,105.327621 424.002502,89.614349 
	C426.048920,89.116920 428.093811,89.075676 430.573181,89.097794 
z"/>
<path fill="#B094BB" opacity="1.000000" stroke="none" 
	d="
M333.396729,141.902954 
	C332.999298,126.585678 332.999634,111.325935 332.999451,95.610336 
	C335.042725,95.116295 337.086517,95.078087 339.565216,95.098045 
	C340.000061,110.081596 340.000031,125.006989 340.000000,140.388000 
	C337.931519,141.215927 335.863007,141.588196 333.396729,141.902954 
z"/>
<path fill="#89ABCB" opacity="1.000000" stroke="none" 
	d="
M405.610443,90.123138 
	C406.002686,105.415291 406.001831,120.672791 406.002258,136.386108 
	C403.958954,136.879333 401.914398,136.916763 399.434998,136.440552 
	C399.001343,121.004204 399.002533,106.081490 399.003723,91.158783 
	C401.074921,90.802017 403.146118,90.445251 405.610443,90.123138 
z"/>
<path fill="#36B8D4" opacity="1.000000" stroke="none" 
	d="
M468.190430,175.285095 
	C468.440491,173.209213 468.958954,171.464325 468.963654,169.718063 
	C469.019989,148.830841 468.958984,127.943237 469.044495,107.056213 
	C469.057220,103.951126 469.665985,100.848480 470.020569,97.313293 
	C471.365021,98.671097 472.687866,100.460297 474.058655,102.595314 
	C473.737335,104.815903 473.053375,106.689575 473.046844,108.565613 
	C472.971466,130.196777 473.017059,151.828339 472.967743,173.459641 
	C472.963287,175.414780 472.522949,177.368912 472.113281,179.713837 
	C470.701050,178.607925 469.460571,177.111679 468.190430,175.285095 
z"/>
<path fill="#DF4190" opacity="1.000000" stroke="none" 
	d="
M184.401337,59.898613 
	C183.990067,47.164780 183.989166,34.501102 183.979919,21.360409 
	C186.361755,20.602160 188.751923,20.320927 191.566864,20.102079 
	C191.993561,32.750050 191.995483,45.335636 191.994492,58.378395 
	C189.598297,59.213299 187.205002,59.591034 184.401337,59.898613 
z"/>
<path fill="#7BB0CD" opacity="1.000000" stroke="none" 
	d="
M390.711731,236.531677 
	C390.987061,234.486603 391.919617,232.688354 391.933105,230.883240 
	C392.049500,215.279892 392.000458,199.675308 392.001526,183.615143 
	C393.394165,183.118576 394.785980,183.077972 396.591858,183.099487 
	C397.003906,200.464767 397.015686,217.767944 396.979523,235.070999 
	C396.975739,236.873306 396.687561,238.675034 396.216736,240.763611 
	C394.249054,239.625244 392.595947,238.200272 390.711731,236.531677 
z"/>
<path fill="#44B7D3" opacity="1.000000" stroke="none" 
	d="
M434.059418,206.596100 
	C433.406586,209.381744 432.106079,211.819412 432.091766,214.264557 
	C431.938293,240.563446 431.987701,266.863525 431.966675,293.640259 
	C430.635315,292.324921 429.318756,290.532593 428.264313,288.110291 
	C428.684265,285.678436 428.977417,283.876617 428.979614,282.074493 
	C429.009766,257.111908 428.974884,232.149231 429.045593,207.186813 
	C429.051544,205.087769 429.700897,202.990540 430.051361,200.892456 
	C431.370544,202.678848 432.689758,204.465225 434.059418,206.596100 
z"/>
<path fill="#8EAACA" opacity="1.000000" stroke="none" 
	d="
M398.577911,91.099022 
	C399.002533,106.081490 399.001343,121.004204 399.000397,136.382568 
	C397.262482,137.211304 395.524323,137.584396 393.393646,137.899414 
	C393.000824,122.584145 393.000519,107.326942 393.000671,91.614182 
	C394.718109,91.118835 396.435120,91.079048 398.577911,91.099022 
z"/>
<path fill="#58B6D1" opacity="1.000000" stroke="none" 
	d="
M422.042328,188.609451 
	C421.727234,190.829117 421.053436,192.708679 421.048187,194.590118 
	C420.977966,219.746048 421.010773,244.902267 420.981201,270.058350 
	C420.979065,271.863251 420.691010,273.667816 420.222229,275.758514 
	C419.012329,274.923401 418.116119,273.802307 417.085175,272.393311 
	C417.300293,270.010132 417.948639,267.915710 417.954529,265.819519 
	C418.024933,240.725601 417.984253,215.631378 418.030670,190.537354 
	C418.034271,188.584442 418.473053,186.632339 418.880371,184.288727 
	C420.032288,185.355133 421.013367,186.812683 422.042328,188.609451 
z"/>
<path fill="#2EB9D4" opacity="1.000000" stroke="none" 
	d="
M435.204376,299.303467 
	C435.779114,297.047760 436.911530,295.122589 436.920868,293.191956 
	C437.040710,268.432892 436.990112,243.673050 437.020416,218.913452 
	C437.022614,217.114059 437.316315,215.315018 437.789032,213.229645 
	C438.731903,213.716507 439.360229,214.489548 440.013336,215.577621 
	C440.025421,242.742905 440.034821,269.593231 439.960175,296.443298 
	C439.953827,298.717804 439.385529,300.990723 439.017517,303.687195 
	C437.717865,302.617157 436.478973,301.124298 435.204376,299.303467 
z"/>
<path fill="#DA5297" opacity="1.000000" stroke="none" 
	d="
M211.607727,18.104832 
	C211.996597,31.085077 211.997498,44.001759 211.997070,57.375031 
	C210.277817,57.876427 208.559891,57.921230 206.417053,57.897675 
	C205.993729,45.247551 205.995285,32.665791 205.994568,19.627476 
	C207.734787,18.794373 209.477264,18.417822 211.607727,18.104832 
z"/>
<path fill="#44B7D3" opacity="1.000000" stroke="none" 
	d="
M474.433594,39.898056 
	C474.010040,27.503180 474.012054,15.170341 474.026123,2.360399 
	C475.797699,2.189581 477.557251,2.495868 479.659851,3.441941 
	C480.004944,15.998867 480.007019,27.916006 480.009094,39.833145 
	C478.292450,39.875462 476.575806,39.917774 474.433594,39.898056 
z"/>
<path fill="#3AB8D3" opacity="1.000000" stroke="none" 
	d="
M480.331604,39.998161 
	C480.007019,27.916006 480.004944,15.998867 480.005249,3.624990 
	C481.749908,3.454657 483.492188,3.741063 485.617615,4.552104 
	C485.986206,17.428579 485.971649,29.780420 485.957062,42.132256 
	C484.189423,41.475891 482.421783,40.819534 480.331604,39.998161 
z"/>
<path fill="#48B7D3" opacity="1.000000" stroke="none" 
	d="
M430.022461,200.578079 
	C429.700897,202.990540 429.051544,205.087769 429.045593,207.186813 
	C428.974884,232.149231 429.009766,257.111908 428.979614,282.074493 
	C428.977417,283.876617 428.684265,285.678436 428.211182,287.765594 
	C427.267212,287.278381 426.638428,286.505981 425.977112,285.419739 
	C426.296387,283.008179 426.948181,280.911316 426.954163,278.812622 
	C427.025146,253.848587 426.990173,228.884277 427.020477,203.920090 
	C427.022675,202.118027 427.317078,200.316315 427.790894,198.228394 
	C428.735321,198.716125 429.364441,199.489914 430.022461,200.578079 
z"/>
<path fill="#36B8D4" opacity="1.000000" stroke="none" 
	d="
M486.091095,42.421288 
	C485.971649,29.780420 485.986206,17.428579 486.001770,4.619591 
	C487.237701,4.539191 488.472626,4.915940 489.869263,5.579875 
	C490.020203,16.581936 490.041565,27.297035 489.966980,38.011467 
	C489.954620,39.784260 489.522736,41.554131 489.113770,43.716110 
	C488.036957,43.641354 487.131042,43.175838 486.091095,42.421288 
z"/>
</svg>